<?xml version="1.0" encoding="UTF-8" standalone="no"?>
<!-- Generator: Adobe Illustrator 19.0.0, SVG Export Plug-In . SVG Version: 6.00 Build 0)  -->

<svg
   xmlns:dc="http://purl.org/dc/elements/1.1/"
   xmlns:cc="http://creativecommons.org/ns#"
   xmlns:rdf="http://www.w3.org/1999/02/22-rdf-syntax-ns#"
   xmlns:svg="http://www.w3.org/2000/svg"
   xmlns="http://www.w3.org/2000/svg"
   xmlns:xlink="http://www.w3.org/1999/xlink"
   xmlns:sodipodi="http://sodipodi.sourceforge.net/DTD/sodipodi-0.dtd"
   xmlns:inkscape="http://www.inkscape.org/namespaces/inkscape"
   version="1.1"
   id="Capa_1"
   x="0px"
   y="0px"
   viewBox="0 0 32.000001 32.000001"
   xml:space="preserve"
   inkscape:version="0.91 r13725"
   sodipodi:docname="link.svg"
   width="32"
   height="32"><metadata
     id="metadata45"><rdf:RDF><cc:Work
         rdf:about=""><dc:format>image/svg+xml</dc:format><dc:type
           rdf:resource="http://purl.org/dc/dcmitype/StillImage" /><dc:title></dc:title></cc:Work></rdf:RDF></metadata><defs
     id="defs43"><linearGradient
       inkscape:collect="always"
       id="linearGradient4255"><stop
         style="stop-color:#32db64;stop-opacity:1;"
         offset="0"
         id="stop4257" /><stop
         style="stop-color:#808080;stop-opacity:1"
         offset="1"
         id="stop4259" /></linearGradient><linearGradient
       inkscape:collect="always"
       xlink:href="#linearGradient4255"
       id="linearGradient4261"
       x1="4.3389916"
       y1="266.84796"
       x2="516.33997"
       y2="229.96654"
       gradientUnits="userSpaceOnUse" /></defs><sodipodi:namedview
     pagecolor="#ffffff"
     bordercolor="#666666"
     borderopacity="1"
     objecttolerance="10"
     gridtolerance="10"
     guidetolerance="10"
     inkscape:pageopacity="0"
     inkscape:pageshadow="2"
     inkscape:window-width="1920"
     inkscape:window-height="1051"
     id="namedview41"
     showgrid="false"
     inkscape:zoom="7.3749859"
     inkscape:cx="55.254404"
     inkscape:cy="5.5146725"
     inkscape:window-x="0"
     inkscape:window-y="0"
     inkscape:window-maximized="1"
     inkscape:current-layer="g4173" /><g
     id="g4173"
     transform="translate(0,-480.00095)"><g
       id="g4263"
       transform="matrix(0.06162073,0,0,0.06162073,0.27118585,480.01205)"><g
         style="opacity:1;fill:#ececec;fill-opacity:1"
         transform="matrix(0,1,-1,0,512.001,0)"
         id="g3"><path
           style="fill:#ececec;fill-opacity:1"
           d="m 224.259,194.097 0,-124.366 c 0.007,-17.531 14.224,-31.737 31.754,-31.73 17.521,0.007 31.723,14.209 31.73,31.73 l 0,124.367 -63.484,0 z"
           id="path5"
           inkscape:connector-curvature="0" /><path
           style="fill:#ececec;fill-opacity:1"
           d="M 256.001,474.012 C 238.48,473.99 224.281,459.791 224.259,442.27 l 0,-124.366 63.483,0 0,124.366 c -0.021,17.521 -14.22,31.72 -31.741,31.742 z"
           id="path7"
           inkscape:connector-curvature="0" /></g><path
         style="fill:url(#linearGradient4261);fill-opacity:1"
         d="m 279.902,325.745 162.368,0 c 38.519,-0.008 69.738,-31.239 69.731,-69.758 -0.007,-38.508 -31.223,-69.723 -69.731,-69.731 l -162.369,0 0,61.744 -47.803,0 0,-61.743 -162.367,0 C 31.213,186.264 -0.007,217.496 0,256.014 c 0.007,38.508 31.223,69.723 69.731,69.731 l 162.368,0 0,-61.745 47.803,0 0,61.745 0,0 z m -63.804,-16.001 -146.367,0 c -29.682,0 -53.743,-24.061 -53.743,-53.743 0,-29.682 24.061,-53.743 53.743,-53.743 l 0,0 146.367,0 0,45.742 -63.003,0 0,16.001 63.003,0 0,45.743 0,0 z m 79.805,-107.486 146.367,0 c 29.682,0.011 53.734,24.082 53.722,53.764 -0.011,29.666 -24.057,53.711 -53.722,53.722 l -146.368,0 0,-45.742 63.003,0 0,-16.001 -63.003,0 0,-45.743 z"
         id="path9"
         inkscape:connector-curvature="0" /></g><g
       id="g11"
       transform="matrix(0,1,-1,0,512.001,0)" /><g
       id="g13"
       transform="matrix(0,1,-1,0,512.001,0)" /><g
       id="g15"
       transform="matrix(0,1,-1,0,512.001,0)" /><g
       id="g17"
       transform="matrix(0,1,-1,0,512.001,0)" /><g
       id="g19"
       transform="matrix(0,1,-1,0,512.001,0)" /><g
       id="g21"
       transform="matrix(0,1,-1,0,512.001,0)" /><g
       id="g23"
       transform="matrix(0,1,-1,0,512.001,0)" /><g
       id="g25"
       transform="matrix(0,1,-1,0,512.001,0)" /><g
       id="g27"
       transform="matrix(0,1,-1,0,512.001,0)" /><g
       id="g29"
       transform="matrix(0,1,-1,0,512.001,0)" /><g
       id="g31"
       transform="matrix(0,1,-1,0,512.001,0)" /><g
       id="g33"
       transform="matrix(0,1,-1,0,512.001,0)" /><g
       id="g35"
       transform="matrix(0,1,-1,0,512.001,0)" /><g
       id="g37"
       transform="matrix(0,1,-1,0,512.001,0)" /><g
       id="g39"
       transform="matrix(0,1,-1,0,512.001,0)" /></g></svg>